<svg width="50" height="96" viewBox="0 0 50 96" fill="none" xmlns="http://www.w3.org/2000/svg">
<g opacity="0.1">
<path d="M49.6943 66.4156C48.8778 66.9382 48.1919 67.9833 47.6367 68.7345C47.0814 69.5184 46.5915 70.1063 45.677 70.8248C44.5339 71.772 43.2275 72.4905 41.823 72.9477C40.19 73.4703 38.5243 73.503 36.9239 73.1764C36.9239 71.4127 36.9239 69.649 36.9239 67.8853C36.9893 67.7873 37.0546 67.6567 37.1199 67.5587C38.4916 65.3051 38.7203 62.9209 38.165 60.6673C38.5243 60.406 39.1122 59.8181 39.1775 59.7528C39.7328 59.1322 40.5493 58.3157 40.7779 57.4665C42.215 52.2735 40.0267 47.0804 36.7933 43.0305C35.7481 41.7241 34.3437 40.4176 33.07 39.0132C33.4292 38.7193 33.8865 38.2294 33.9518 38.164C34.3437 37.7395 34.703 37.2822 35.0296 36.7923C35.1929 36.5637 35.5522 36.1717 35.5522 35.8778C35.5522 31.6972 35.5522 27.5493 35.5522 23.3687V23.3361C35.5522 23.3034 35.5849 23.3034 35.5849 23.2707C35.6175 23.2054 35.8135 22.8135 35.5522 22.9441C32.7107 24.3812 30.4898 26.7654 28.6608 29.3456C27.0277 31.6646 25.9173 34.3754 26.7991 37.1842C27.583 39.7318 29.5426 41.7241 31.339 43.5857C33.3313 45.676 35.2256 47.897 36.5647 50.4772C38.0997 53.4493 38.7856 56.846 38.0344 60.1121C37.5118 58.3157 36.4667 56.6174 35.1603 55.115C33.5925 53.3186 31.6656 51.8816 30.2285 49.9546C28.922 48.2236 27.9749 45.7413 28.922 43.6184C29.314 42.8019 28.2035 43.8797 28.1055 43.9777C27.4197 44.6962 26.6358 45.5127 26.2112 46.4272C25.9826 46.9171 25.8193 47.407 25.7213 47.8969C23.5984 50.3138 21.8673 53.1553 21.1815 56.3234C20.4303 59.8508 20.9855 63.5088 22.5205 66.7422C24.6108 71.2494 29.02 75.6259 33.9845 76.6057C33.9845 79.4146 33.9845 82.2234 33.9845 85.0649C31.2736 80.0025 25.7866 76.2138 21.2468 72.9151C17.5888 70.2696 13.7675 67.722 10.3381 64.7826C7.13733 62.0391 4.29584 58.675 3.28336 54.4944C2.72813 52.2082 2.82612 49.7913 3.70796 47.5703C4.49181 45.6434 5.70026 44.2063 7.03935 42.7366C7.43128 42.312 7.79055 41.8547 8.11716 41.3648C8.18248 41.2668 8.67239 40.6463 8.63973 40.4503C8.54175 40.091 7.43128 41.3648 7.36595 41.4301C4.3285 44.7615 0.801149 48.6808 0.115274 53.3186C-0.505281 57.6299 1.45436 61.8758 4.19787 65.0765C7.23532 68.6039 11.1873 71.1841 14.9433 73.8949C18.7972 76.7037 22.9125 79.3493 26.4072 82.6153C30.0978 86.0447 33.1353 90.6825 32.7434 95.8756C32.7107 96.2675 33.9518 94.9611 34.0171 94.8958C34.4091 94.4712 34.7683 94.0139 35.0949 93.524C35.2582 93.2954 35.5848 92.9035 35.6175 92.6095C35.7155 91.3031 35.6175 90.0293 35.3889 88.8535C35.7155 88.4616 36.0421 88.0697 36.336 87.6451C36.4993 87.4165 36.8586 87.0245 36.8586 86.7306C36.8586 83.3992 36.8586 80.0678 36.8586 76.7364C37.8058 76.6711 38.7856 76.4424 39.7328 76.0832C43.848 74.4828 46.9508 70.6615 49.433 67.1995C49.5963 67.1341 50.4455 65.9257 49.6943 66.4156ZM29.3466 31.7299C29.3466 30.9787 29.4773 30.2275 29.7386 29.509C29.8692 29.1497 29.9999 28.7904 30.1958 28.4638C30.2611 28.3658 30.3918 28.2025 30.4898 28.0392C30.6857 27.8759 30.9144 27.6799 31.1103 27.5166C31.6002 27.1574 32.1228 26.8308 32.678 26.5368C32.678 26.5695 32.678 26.6021 32.678 26.6348C32.678 30.6194 32.678 34.5714 32.678 38.556C30.849 36.5963 29.314 34.3754 29.3466 31.7299ZM33.1026 71.772C27.8442 68.8652 23.9903 62.8229 23.7943 56.7807C23.729 55.1476 23.9576 53.5146 24.4149 51.9469C24.6435 51.163 24.9701 50.3792 25.3294 49.6606C25.4273 49.4647 25.5253 49.2687 25.656 49.1054C25.7213 52.5021 28.9547 55.2456 31.2736 57.5972C32.8413 59.1649 34.2458 60.9939 35.0296 63.1169C35.5195 64.4886 35.7808 66.1216 35.5195 67.6567C35.1603 68.0486 34.8336 68.4732 34.5397 68.8978C34.3764 69.1264 34.0171 69.5184 34.0171 69.8123C34.0171 70.6288 34.0171 71.4454 34.0171 72.2619C33.7232 72.0659 33.3966 71.9353 33.1026 71.772Z" fill="white"/>
<path d="M16.6743 45.5127C17.5234 46.8845 18.1767 48.3869 18.3073 50.0199C18.3726 50.7384 18.3073 51.4896 18.144 52.1755C18.0787 52.3715 18.046 52.6001 17.948 52.7961C17.3601 53.3513 16.8702 54.0372 16.413 54.6577C16.2823 54.8537 15.4985 56.0622 16.217 55.5396C17.7194 54.4618 18.9605 52.8941 19.9403 51.359C20.3976 50.6405 20.7569 49.824 20.9855 49.0074C21.3448 48.7461 21.9 48.1583 21.9326 48.0929C22.3246 47.6683 22.6838 47.2111 23.0105 46.7212C23.1738 46.4926 23.533 46.1006 23.533 45.8067C23.533 38.0334 23.533 30.2928 23.533 22.5196C23.5983 22.4216 23.6963 22.3236 23.7617 22.2256C24.0883 21.801 24.4475 21.3764 24.7088 20.9518C24.8068 20.7885 25.0028 20.5273 24.9701 20.2986C24.7415 19.2535 24.3495 18.241 23.827 17.3265C23.7943 17.2938 23.6963 17.3265 23.533 17.4571C23.533 17.2285 23.533 16.9999 23.533 16.7713C23.533 16.3793 22.3246 17.6531 22.2593 17.7511C21.8673 18.1757 21.5081 18.6329 21.1815 19.1228C21.0181 19.3515 20.6589 19.7434 20.6589 20.0373C20.6589 28.1046 20.6589 36.1718 20.6589 44.239C20.0383 42.5733 19.0258 41.0709 17.8827 39.7318C13.9308 35.0286 8.11715 31.7299 5.56961 25.9489C4.91639 24.4792 4.52447 22.8788 4.55713 21.2458C4.55713 20.4619 4.65511 19.6781 4.85108 18.9269C4.94906 18.6003 5.04704 18.2737 5.14502 17.9471C5.37365 17.3918 6.09218 16.5426 4.98172 17.8164C5.37365 17.3918 5.73291 16.9346 6.05952 16.4447C6.12484 16.3467 6.61475 15.7261 6.58209 15.5302C6.48411 15.1709 5.37365 16.412 5.30833 16.51C3.28336 18.8289 1.65033 21.3438 1.61767 24.5119C1.58501 27.3207 2.66281 29.9336 4.23053 32.2198C7.75789 37.2169 13.4408 40.287 16.6743 45.5127Z" fill="white"/>
<path d="M14.0941 26.2102C14.3227 26.4389 17.3601 23.1075 16.9682 22.7155C15.8578 21.6704 14.7799 20.6252 13.6695 19.5801C13.4409 19.3515 10.4034 22.6829 10.7953 23.0748C11.8731 24.1199 12.9836 25.1651 14.0941 26.2102Z" fill="white"/>
<path d="M14.0941 61.8758C14.3227 62.1044 17.3601 58.773 16.9682 58.3811C15.8578 57.3359 14.7799 56.2908 13.6695 55.2456C13.4409 55.017 10.4034 58.3484 10.7953 58.7403C11.8731 59.7855 12.9836 60.8306 14.0941 61.8758Z" fill="white"/>
<path d="M28.4974 17.1959C33.6252 20.3639 39.5694 23.3687 42.5416 28.8884C44.1746 31.9259 44.7625 35.5185 43.4561 38.7846C43.3254 39.0786 43.8153 38.7193 43.7827 38.7519C44.1419 38.5233 44.4685 38.0987 44.7625 37.8048C45.3504 37.1189 46.0363 36.3677 46.3629 35.5185C48.6818 29.7049 45.2524 23.6953 40.8432 19.972C36.0094 15.8568 29.8039 13.6032 25.1987 9.22663C24.2515 8.31213 23.337 7.23433 22.6185 6.05854C22.6838 5.99322 22.7165 5.96056 22.7165 5.9279C22.9125 5.69927 24.1862 4.32752 23.9249 4.00091C23.0431 2.82513 22.2592 1.61668 21.5407 0.342908C21.5407 0.310248 21.5407 0.277587 21.5734 0.277587C21.606 0.212265 21.5407 0.212266 21.4754 0.244926C21.4427 0.179605 21.3774 0.0816225 21.3447 0.016301C21.2468 -0.179664 19.777 1.45337 19.679 1.58402C19.4504 1.8453 18.242 3.08641 18.4706 3.511C18.5033 3.60898 18.5686 3.6743 18.6339 3.77229C17.2295 9.91251 24.0229 14.4197 28.4974 17.1959Z" fill="white"/>
</g>
</svg>
